<svg width="721" height="721" viewBox="0 0 721 721" fill="none" xmlns="http://www.w3.org/2000/svg">
<mask id="mask0_254_202" style="mask-type:luminance" maskUnits="userSpaceOnUse" x="0" y="0" width="721" height="721">
<path d="M720.607 0.101562H0.607422V720.102H720.607V0.101562Z" fill="white"/>
</mask>
<g mask="url(#mask0_254_202)">
<mask id="mask1_254_202" style="mask-type:luminance" maskUnits="userSpaceOnUse" x="0" y="2" width="721" height="716">
<path d="M721 2.71094H0.253906V717.024H721V2.71094Z" fill="white"/>
</mask>
<g mask="url(#mask1_254_202)">
<path d="M276.692 262.72V194.86C276.692 189.144 278.837 184.857 283.835 182.003L420.273 103.429C438.845 92.7143 460.989 87.7166 483.844 87.7166C569.56 87.7166 623.852 154.149 623.852 224.863C623.852 229.862 623.852 235.577 623.136 241.293L481.7 158.431C473.13 153.433 464.555 153.433 455.984 158.431L276.692 262.72ZM595.276 527.018V364.865C595.276 354.862 590.987 347.719 582.418 342.72L403.126 238.431L461.699 204.856C466.699 202.002 470.986 202.002 475.985 204.856L612.422 283.431C651.712 306.291 678.138 354.862 678.138 402.004C678.138 456.29 645.997 506.295 595.276 527.012V527.018ZM234.548 384.156L175.975 349.871C170.977 347.017 168.832 342.728 168.832 337.013V179.865C168.832 103.436 227.405 45.5726 306.696 45.5726C336.701 45.5726 364.553 55.5753 388.132 73.4324L247.412 154.867C238.843 159.864 234.556 167.007 234.556 177.011V384.162L234.548 384.156ZM360.626 457.014L276.692 409.87V309.87L360.626 262.727L444.554 309.87V409.87L360.626 457.014ZM414.556 674.168C384.553 674.168 356.7 664.166 333.122 646.31L473.84 564.874C482.41 559.876 486.698 552.734 486.698 542.729V335.579L545.989 369.864C550.987 372.718 553.132 377.006 553.132 382.722V539.87C553.132 616.299 493.841 674.162 414.556 674.162V674.168ZM245.262 514.877L108.825 436.304C69.5343 413.442 43.1081 364.872 43.1081 317.729C43.1081 262.727 75.967 213.44 126.68 192.723V355.586C126.68 365.589 130.969 372.731 139.538 377.731L318.12 481.302L259.547 514.877C254.549 517.731 250.26 517.731 245.262 514.877ZM237.409 632.024C156.691 632.024 97.4016 571.307 97.4016 496.304C97.4016 490.589 98.1177 484.873 98.8278 479.158L239.547 560.593C248.116 565.592 256.693 565.592 265.262 560.593L444.554 457.021V524.881C444.554 530.596 442.41 534.884 437.411 537.738L300.975 616.312C282.401 627.026 260.257 632.024 237.402 632.024H237.409ZM414.556 717.024C500.99 717.024 573.131 655.595 589.567 574.161C669.569 553.444 721 478.441 721 402.011C721 352.007 699.573 303.438 660.998 268.435C664.57 253.433 666.714 238.431 666.714 223.437C666.714 121.292 583.852 44.855 488.132 44.855C468.85 44.855 450.277 47.7089 431.703 54.1416C399.554 22.7104 355.267 2.71094 306.696 2.71094C220.264 2.71094 148.122 64.1384 131.687 145.573C51.6846 166.29 0.253906 241.293 0.253906 317.722C0.253906 367.726 21.681 416.296 60.2551 451.298C56.6837 466.3 54.54 481.302 54.54 496.298C54.54 598.443 137.402 674.878 233.12 674.878C252.404 674.878 270.977 672.024 289.55 665.592C321.692 697.023 365.979 717.024 414.556 717.024Z" fill="currentColor"/>
</g>
</g>
</svg>
