<svg width="128" height="128" viewBox="0 0 128 128" fill="none" xmlns="http://www.w3.org/2000/svg">
<path d="M88.7004 5.61989C90.4603 4.04006 91.8699 4.26069 95.3898 8.05055C101.74 14.8905 103.41 20.3802 105.88 26.1101C108.35 31.8403 108.73 45.3905 105.25 50.1804C101.788 54.9459 97.6912 54.7228 97.6506 54.7205C97.644 54.7188 97.5195 54.6874 97.3058 54.6453C97.8535 55.5622 98.0375 56.9203 97.3986 58.9324C96.2681 62.4718 90.6086 63.0828 90.6086 63.0828C90.5184 63.1646 83.6531 69.3827 79.8185 69.492C78.9781 69.5159 78.1867 69.6028 77.509 69.7039C77.5184 70.0415 77.5258 70.4005 77.5295 70.7761C80.8856 70.8609 87.2912 71.001 88.3986 70.8621C89.8983 70.6721 97.2767 65.3642 98.1291 64.8923C98.9691 64.4224 100.089 63.9624 100.659 64.8923C101.129 65.6423 100.399 66.4424 99.5588 67.1023C98.7154 67.7644 90.1602 73.2323 89.4894 73.6228C88.3308 74.2943 81.0011 74.2684 77.3586 74.2127C77.3295 74.4939 77.2969 74.791 77.2619 75.1004C80.5483 75.4624 87.9801 76.3408 89.2892 77.0222C89.85 77.3133 96.0694 85.1626 96.4494 85.6326C96.8291 86.1027 96.8988 87.0525 96.259 87.6023C95.5891 88.1815 94.7593 87.4121 94.1994 86.9422C93.6393 86.4721 88.2288 80.5024 87.8488 80.2224C87.5506 80.0042 80.1332 78.8537 76.8586 78.3543C76.823 78.6244 76.786 78.8975 76.7492 79.1716C76.7479 79.1824 76.7262 79.3662 76.6935 79.6736C79.5315 80.4165 86.1829 82.2008 86.9592 82.8123C88.0492 83.6723 91.7784 89.2319 92.2687 90.1423C92.7587 91.0525 93.359 93.1728 92.3791 93.6228C91.629 93.9715 90.0592 92.2123 89.8488 91.6521C89.6377 91.0905 85.9109 85.315 85.4894 85.1023C85.1549 84.9356 78.8936 83.534 76.3097 82.9588C76.2619 83.3268 76.2118 83.7014 76.1594 84.0711C78.1354 85.059 83.4177 87.745 83.9387 88.492C84.5688 89.4124 86.8286 96.3028 86.8986 96.8728C86.9688 97.4434 87.2887 98.9726 86.549 99.2625C85.3896 99.7216 84.649 97.893 84.299 97.2527C83.949 96.6227 81.9792 90.7427 81.549 90.1121C81.242 89.6528 77.5709 88.2918 75.6008 87.5867C75.3285 89.2563 75.1144 90.5722 75.1096 90.6013C75.107 90.6007 75.0868 90.5961 75.051 90.5877C74.9636 91.1247 74.8653 91.7229 74.7648 92.3611C74.7849 92.3686 74.7965 92.3728 74.799 92.3738L73.7697 99.9734C73.768 99.9727 73.7538 99.9667 73.7287 99.9548C73.6377 100.835 73.5677 101.655 73.5344 102.365C73.5305 102.625 73.5263 102.988 73.5207 103.291C73.511 103.813 73.7047 104.715 73.7101 104.74C73.7078 104.739 73.6993 104.737 73.6857 104.731C74.1761 105.713 83.822 109.955 84.2902 116.31C84.7598 122.69 78.6607 123.91 75.9406 123.44C74.3423 123.164 73.0038 122.012 72.1711 121.111C70.2142 122.492 67.6788 123.258 64.6301 123.121C61.6611 122.987 59.5065 122.134 57.9406 120.876C57.3213 121.439 56.6059 122.093 56.1506 122.5C55.22 123.35 51.93 124.849 48.2707 121.94C44.611 119.03 45.8407 113.87 48.8303 110.68C52.2598 107.021 56.1199 105.37 56.8107 104.16C56.8116 104.158 56.8119 104.156 56.8127 104.154C56.8332 104.046 56.949 103.417 56.9308 102.97C56.9156 102.59 56.8821 101.901 56.8674 101.594C56.808 101.276 56.7365 100.936 56.6506 100.58C56.3605 99.1495 54.721 90.1239 54.4904 89.1804C54.4346 88.9525 54.228 88.0815 53.9445 86.8269C53.9389 86.8033 53.9336 86.7792 53.9279 86.7556C52.2717 87.7632 46.6187 91.2244 46.4992 91.5828C46.3579 92.0105 45.1293 98.4425 44.9494 99.1824C44.8393 99.6626 44.5587 100.693 43.5392 100.663C42.2399 100.623 42.479 99.5322 42.549 98.3425C42.619 97.1429 43.7487 90.0755 44.5187 89.2625C44.7483 89.0233 51.4301 83.8996 53.1828 83.4548C53.1284 83.1873 53.0746 82.9211 53.0236 82.6609C51.4091 83.3503 48.1722 84.7304 47.1291 85.1521C45.7185 85.7124 41.0389 87.5828 40.759 87.7927C40.4451 88.0115 37.399 94.2015 37.0988 94.6121C36.7487 95.1019 35.939 95.6721 35.1994 95.3826C34.5597 95.1425 34.4994 94.2516 34.9191 93.2019C35.3394 92.141 37.9071 85.1883 38.259 84.8923C38.6088 84.6124 48.2828 81.0248 49.0588 80.6726C49.5271 80.4597 51.173 79.9074 52.3898 79.5066C52.3223 79.1637 52.2567 78.8203 52.1916 78.4793C49.9736 78.686 44.8631 79.1693 43.9289 79.3328C42.728 79.5429 38.4686 80.2826 38.1887 80.4226C37.9037 80.5727 35.1293 85.5228 34.7795 86.0925C34.4287 86.653 32.6689 88.2718 31.9592 87.782C31.2596 87.2921 31.4694 85.9529 31.7492 85.2527C32.0291 84.5529 35.5481 78.075 36.2492 77.5125C36.9493 76.9525 40.829 76.3127 43.2189 75.9627C45.0709 75.6915 49.6135 75.1629 51.5646 74.9382C51.5256 74.6921 51.49 74.4505 51.4553 74.2156C49.5116 74.2461 44.9215 74.3191 43.4387 74.3425C41.8882 74.3726 38.1687 74.5219 37.3888 74.2019C36.0882 73.6714 31.5089 70.7529 30.5588 69.9129C30.1388 69.5329 26.9305 67.4824 28.0295 65.9724C28.8995 64.7629 31.1983 66.5324 31.8986 66.9627C32.5985 67.3826 37.4276 70.4413 38.6887 70.7322C39.8123 70.9799 49.0072 70.9843 51.1115 70.9822C51.0661 70.3165 51.0274 69.745 50.9982 69.2576C49.9663 69.5684 46.6626 70.3584 43.1594 68.992C38.7819 67.2824 38.5147 65.9147 38.509 65.8826C38.4622 65.8839 34.9814 65.9714 33.7892 62.9226C33.4306 62.0032 33.1278 60.4936 32.9162 59.2254C31.7598 59.2351 30.4657 59.0236 29.0207 58.3504C23.301 55.6704 21.51 50.6502 20.34 46.5203C19.17 42.3904 19.1506 36.7495 20.1105 29.6697C21.4705 19.6808 26.1102 14.8006 29.2101 11.8406C32.3101 8.88062 34.1806 10.3801 34.2306 12.0701C34.2801 13.7613 30.9905 23.0004 30.5705 27.3201C30.2547 30.5686 30.3569 35.0333 31.1076 37.0095C31.7037 36.7619 32.3633 36.6786 32.6701 36.6785C32.7378 36.6785 32.8407 36.672 32.9699 36.6658C32.9683 35.622 32.6193 34.0835 32.5402 32.4402C32.4002 29.5305 33.0508 25.3802 33.8107 23.6199C35.0308 20.8102 37.6102 20.0103 38.5002 21.6502C39.3901 23.2906 39.5798 32.2505 40.1398 35.3504C40.7099 38.451 42.27 48.7303 41.8801 51.1902C41.4931 53.6292 39.848 54.8986 39.8205 54.9197C39.8289 54.929 41.0526 56.2739 41.7004 57.3103C42.7302 58.9502 42.5402 60.6902 42.5402 60.6902C42.5402 60.6902 45.1205 61.2102 46.6506 61.4402C48.1682 61.6684 51.3383 62.8017 51.3898 62.8201C51.3898 62.8201 51.6301 61.5495 52.05 60.1697C52.4701 58.7896 54.1809 55.5704 55.7306 53.5105C56.2229 52.8563 57.1503 51.486 58.2121 49.9226C58.1289 48.3212 57.3662 33.4647 57.3 26.2039C57.23 18.5241 55.7501 12.3335 51.9504 12.4031C48.1507 12.4734 46.3202 16.4138 46.0402 20.0037C45.9003 21.7734 45.8998 23.6028 44.0002 23.2429C42.5207 22.9627 43.0902 20.2834 43.1603 18.5935C43.2003 17.6835 44.2905 8.53391 52.1701 8.6736C60.05 8.81372 60.2003 20.5638 60.4103 24.0838C60.5708 26.7746 60.8904 39.8148 61.0344 45.822C62.4216 43.8583 63.6023 42.3137 63.9201 42.3201C64.1604 42.3277 65.1933 43.5005 66.4953 45.0964C66.5862 39.3538 66.8377 23.8248 66.9513 20.6267C67.0913 16.6866 67.1616 8.13771 74.551 8.30739C79.5209 8.42741 80.5311 10.8872 81.1711 14.8572C81.521 17.037 81.3304 18.9876 81.2404 19.9275C81.1702 20.6974 80.8601 21.7776 79.6906 21.7576C78.4214 21.7272 78.2112 20.6268 78.2111 19.4373C78.2111 18.2473 78.4206 11.6274 74.9006 11.5574C71.3811 11.4879 70.1805 15.2875 70.1105 20.5672C70.0442 25.5689 69.6006 46.7335 69.5539 48.9578C70.8236 50.5889 72.0054 52.127 72.7199 53.0398C74.8099 55.7199 77.3 62.5906 77.3 62.5906C77.3 62.5906 82.5986 59.7506 83.59 59.1199C84.5713 58.4955 86.6538 57.1044 86.6906 57.0798C86.7008 57.0488 87.369 55.0289 88.4504 53.5603C89.531 52.093 91.4479 52.0118 91.4806 52.0105C91.4806 52.0105 89.0202 49.4401 87.5402 44.5506C86.4702 41.0207 86.0598 35.9596 85.3898 31.6697C84.72 27.3805 84.3309 20.0625 85.2101 18.7205C86.0901 17.3805 87.82 17.1703 88.84 18.6502C89.8901 20.1703 92.0506 25.2702 92.4406 29.1101C92.6022 30.7013 92.7446 31.8426 92.9269 32.6257C93.577 32.5333 94.3255 32.4377 94.9523 32.5076C95.0229 31.6109 94.962 30.3401 94.8801 28.7302C94.6901 25.0703 94.0898 23.2398 92.7199 18.78C91.23 13.9205 86.9416 7.20061 88.7004 5.61989ZM71.3224 53.1375C70.7632 51.8996 69.3189 51.3441 68.0959 51.8963C66.8729 52.4486 66.3348 53.8993 66.8937 55.1375C67.4528 56.3757 68.8972 56.9318 70.1203 56.3797C71.3434 55.8274 71.8815 54.3757 71.3224 53.1375ZM60.966 51.3474C59.8093 50.7964 58.3707 51.4007 57.7531 52.697C57.1357 53.9933 57.573 55.4907 58.7297 56.0418C59.8864 56.5928 61.325 55.9885 61.9426 54.6922C62.5599 53.3959 62.1226 51.8985 60.966 51.3474Z" fill="black"/>
</svg>
